<svg width="117" height="26" viewBox="0 0 117 26" fill="none" xmlns="http://www.w3.org/2000/svg">
<g clip-path="url(#clip0_2342_161905)">
<path fill-rule="evenodd" clip-rule="evenodd" d="M51.8962 11.3221C50.7299 11.087 50.0719 11.002 48.8459 11.002C43.4647 11.002 41.4196 14.2149 41.2405 17.1618C41.0826 19.7058 42.4435 21.5116 44.4641 21.5116C45.497 21.5116 46.4499 21.1552 47.4631 20.3747L47.2744 21.3096H48.8475C49.9348 21.2543 50.1001 20.7604 50.2628 19.9333L51.974 11.3378C51.9484 11.3334 51.9223 11.3275 51.8962 11.3221ZM45.635 19.2584C44.7349 19.2584 43.8832 18.4482 43.9584 17.2235C44.0363 15.9729 45.2735 12.7205 48.9429 13.1023L47.8214 18.3653C47.1047 18.9443 46.316 19.2584 45.635 19.2584Z" fill="#0D3578"/>
<path fill-rule="evenodd" clip-rule="evenodd" d="M57.995 11.0137H57.402L56.3888 11.0207C55.2999 11.0749 55.141 11.5553 54.9783 12.3818C54.9165 12.6916 54.8487 13.0356 54.773 13.4114L53.1428 21.3148L54.4083 21.317L54.8055 21.3148C55.8929 21.2574 56.0603 20.7743 56.2203 19.9456C56.3611 19.2312 56.5344 18.3353 56.7461 17.2656L57.995 11.0137Z" fill="#0D3578"/>
<path fill-rule="evenodd" clip-rule="evenodd" d="M58.488 8.67682C58.488 9.54666 57.7926 10.2519 56.9351 10.2519C56.0781 10.2519 55.3833 9.54666 55.3833 8.67682C55.3833 7.80589 56.0781 7.09961 56.9351 7.09961C57.7926 7.09961 58.488 7.80589 58.488 8.67682Z" fill="#0D3578"/>
<path fill-rule="evenodd" clip-rule="evenodd" d="M93.7644 11.0137H93.1724L92.1576 11.0207C91.0724 11.0749 90.9108 11.5553 90.7482 12.3818C90.6863 12.6922 90.6186 13.0393 90.5434 13.4152L88.9116 21.3148H90.577C91.6638 21.2574 91.8275 20.7743 91.9912 19.9456C92.1294 19.2436 92.2984 18.3651 92.5064 17.3171L93.7644 11.0137Z" fill="#0D3578"/>
<path fill-rule="evenodd" clip-rule="evenodd" d="M94.257 8.67682C94.257 9.54666 93.5627 10.2519 92.7052 10.2519C91.8483 10.2519 91.155 9.54666 91.155 8.67682C91.155 7.80589 91.8483 7.09961 92.7052 7.09961C93.5627 7.09961 94.257 7.80589 94.257 8.67682Z" fill="#0D3578"/>
<path fill-rule="evenodd" clip-rule="evenodd" d="M66.2023 11.0137C65.4658 11.0137 64.6664 11.3544 63.6452 12.534L63.6042 12.488L63.9257 11.025L62.9211 11.037L62.5168 11.044C61.4317 11.1009 61.0504 11.5786 60.8883 12.4078C60.7475 13.1228 60.5523 14.0159 60.3299 15.0872L59.0208 21.3148H60.6525C61.7388 21.2574 61.9015 20.7732 62.0673 19.9456C62.1388 19.5794 62.2102 19.2398 62.2742 18.9246L63.057 15.1874C63.2938 14.3582 64.2004 13.3751 64.9011 13.2365C65.6274 13.093 66.1996 13.1444 67.1712 14.2293C67.1712 14.2293 67.2645 14.3398 67.3722 14.0928C67.489 13.8231 68.0068 12.1717 68.0068 12.1717C67.3722 11.3549 66.8038 11.0137 66.2023 11.0137Z" fill="#0D3578"/>
<path fill-rule="evenodd" clip-rule="evenodd" d="M86.7792 11.0137C86.0438 11.0137 85.2455 11.3544 84.2238 12.534L84.1822 12.488L84.5022 11.025L83.498 11.037L83.0959 11.044C82.0118 11.1009 81.6284 11.5786 81.4658 12.4078C81.325 13.1228 81.1287 14.0159 80.9074 15.0872L79.5999 21.3148H81.2306C82.3168 21.2574 82.48 20.7732 82.6453 19.9456C82.7163 19.5794 83.6345 15.1874 83.6345 15.1874C83.8713 14.3582 84.7784 13.3751 85.4807 13.2365C86.2076 13.093 86.7771 13.1444 87.7519 14.2293C87.7519 14.2293 87.8425 14.3398 87.9497 14.0928C88.0681 13.8225 88.5859 12.1717 88.5859 12.1717C87.9497 11.3549 87.3839 11.0137 86.7792 11.0137Z" fill="#0D3578"/>
<path fill-rule="evenodd" clip-rule="evenodd" d="M109.518 18.1727C110.397 18.0151 113.651 17.5943 115.128 16.5581C116.595 15.5215 117.368 14.3239 116.827 12.9309C116.286 11.54 114.641 10.7866 111.88 10.9816C109.119 11.1749 107.752 12.2761 107.181 13.8944C106.611 15.5117 105.79 19.1081 106.84 20.2417C107.953 21.4398 109.119 21.3033 111.188 21.3033C111.737 21.3033 113.721 21.3022 113.721 21.3022C114.791 21.3022 115.216 19.9937 115.216 19.2148L110.559 19.2202C110.559 19.2202 108.723 19.3047 108.723 18.6607C108.723 18.5324 108.764 18.3103 109.518 18.1727ZM109.402 15.7928C109.522 15.2079 109.707 13.1107 112.119 13.0343C113.898 12.9786 114.877 13.2434 113.979 14.3462C113.05 15.4863 110.753 15.9532 109.793 16.2115C109.793 16.2115 109.283 16.3745 109.402 15.7928Z" fill="#0D3578"/>
<path fill-rule="evenodd" clip-rule="evenodd" d="M36.8001 8.10233C36.814 8.03083 36.8407 7.90085 36.8407 7.90085C36.8407 7.90085 37.2353 6.80568 38.2218 6.75315C38.9796 6.75152 40.084 6.75585 41.4545 6.77589C43.3193 6.80568 43.6814 5.50795 43.9944 4.64244H38.5941H38.5877C38.2501 4.62944 37.8555 4.6354 37.2982 4.64244H37.2934C36.6108 4.64244 35.9677 4.66248 35.4291 4.96471C34.9945 5.20681 34.7572 5.58216 34.5402 5.99866C34.3802 6.30631 34.2111 6.89559 34.0309 7.76869L33.3899 10.8792L32.0103 17.5872L31.2104 21.4696C32.4338 21.2773 34.1338 21.097 34.6516 18.5654C34.8575 17.5591 34.9833 16.9503 35.0574 16.5793L35.5134 14.3651C35.6696 13.6724 35.9 13.2705 36.8876 13.2158H36.9916V13.2147C37.5083 13.2196 38.1845 13.225 39.0612 13.238C40.9266 13.2678 41.2903 11.969 41.6049 11.104H36.181L36.8001 8.10233Z" fill="#0D3578"/>
<path fill-rule="evenodd" clip-rule="evenodd" d="M81.7815 6.56994C81.4061 5.53165 80.6979 4.88549 79.6228 4.68726C78.2822 4.44245 76.8509 4.55673 75.4948 4.56539C74.6395 4.57135 73.7105 4.53452 72.9527 5.01602C72.3896 5.37241 72.0824 6.04294 71.9006 6.67122C71.587 7.75935 71.3983 8.90271 71.161 10.0082L68.8188 21.4689C69.7953 21.3178 70.7898 21.1282 71.4702 20.3342C71.9555 19.7655 72.1603 19.0533 72.308 18.3329C72.428 17.7507 72.5586 17.1657 72.6664 16.5786C72.8162 15.7775 72.9607 14.9781 73.1543 14.1673C73.2642 13.6955 73.9531 13.6685 74.3536 13.617C74.9104 13.5423 75.4676 13.4908 76.0206 13.389C77.7143 13.0797 79.4671 12.3523 80.6526 11.0427C81.709 9.87493 82.3468 8.12007 81.7815 6.56994ZM78.9071 9.10852C78.1269 10.24 76.7842 10.7859 75.5219 11.1434C75.0564 11.2766 74.5882 11.3887 74.1221 11.5198C74.0133 11.5518 73.8779 11.5594 73.7765 11.4933C73.6886 11.4332 73.7366 11.366 73.7536 11.2766C73.7835 11.1309 73.8149 10.9858 73.8443 10.8406C73.9936 10.1165 74.1424 9.39558 74.2917 8.67251C74.4223 8.0361 74.6031 7.34391 75.2286 7.04276C75.756 6.7882 76.3869 6.76599 76.9623 6.78495C77.5601 6.80066 78.2757 6.76383 78.7802 7.13051C79.4505 7.61797 79.33 8.49594 78.9071 9.10852Z" fill="#0D3578"/>
<path fill-rule="evenodd" clip-rule="evenodd" d="M101.104 10.9196C98.3397 10.9033 96.565 12.1843 96.0472 13.8563C95.538 15.4974 94.6543 18.9307 95.7075 20.2046C96.7479 21.471 98.3424 21.3161 100.414 21.3161C100.96 21.3161 102.944 21.3128 102.944 21.3128C104.016 21.3128 104.437 19.9577 104.437 19.1815L99.7828 19.1826C99.7828 19.1826 97.967 19.3987 97.967 17.5279C97.967 16.9105 98.1419 16.3597 98.2411 15.7579C98.3339 15.1865 98.8927 13.183 101.123 13.0595C101.545 13.0595 101.992 13.0525 102.465 13.0525C102.819 13.0525 104.19 13.0514 104.19 13.0514H104.623C105.694 13.0514 106.118 11.6957 106.118 10.918C106.118 10.918 101.139 10.9196 101.104 10.9196Z" fill="#0D3578"/>
<mask id="mask0_2342_161905" style="mask-type:luminance" maskUnits="userSpaceOnUse" x="0" y="0" width="28" height="26">
<path fill-rule="evenodd" clip-rule="evenodd" d="M0.000732422 0H27.5848V25.9999H0.000732422V0Z" fill="white"/>
</mask>
<g mask="url(#mask0_2342_161905)">
<path fill-rule="evenodd" clip-rule="evenodd" d="M19.6981 2.475C19.3429 2.70952 19.0342 2.87201 18.8411 3.64165L17.4792 9.92665L19.2523 10.8295C19.5216 9.28158 20.8931 7.87661 22.703 6.20841C23.9658 5.04554 24.9028 4.23852 25.708 3.60753C26.2295 3.19048 26.7452 2.97871 27.0796 2.88013L27.5686 0.615606C27.9749 -1.34236 20.4825 1.94962 19.6981 2.475ZM22.1539 8.86996C20.8031 10.6524 20.281 12.2638 20.1146 13.75C20.4197 12.2361 21.772 10.8496 23.5473 9.21227C24.6405 8.20647 25.4878 7.4677 26.2179 6.87841L27.0253 3.13471L26.7272 3.41419C25.474 4.64638 24.2987 6.03944 22.1539 8.86996ZM20.9609 16.7533C21.2648 15.2384 22.6161 13.854 24.3935 12.2183C24.6889 11.9447 24.9673 11.6929 25.2297 11.4573L25.9378 8.17288C25.1465 9.09364 24.2335 10.2462 22.999 11.8749C21.6488 13.6568 21.1256 15.2676 20.9609 16.7533ZM17.1182 15.123L17.0531 14.7606L20.4202 16.4657C19.4374 14.7151 17.7762 13.2804 16.8852 12.5882L16.5097 14.3062C16.4265 14.7189 16.3716 15.1024 16.3482 15.4637C16.1844 17.8701 17.3182 19.1218 19.5744 19.1218C20.0736 19.1218 20.5359 19.0633 20.9609 18.949C19.5078 16.7262 17.1182 15.123 17.1182 15.123ZM21.9987 18.5222C23.0274 17.9297 23.7745 16.9071 24.2763 15.5227L24.2853 15.4929C24.3904 15.1317 24.4922 14.759 24.5792 14.3723L24.5952 14.3062L24.7461 13.6119C24.4645 13.9731 24.1648 14.3609 23.8433 14.7839C22.8242 16.1201 22.2771 17.3594 21.9987 18.5222ZM17.3011 10.6812L16.9769 12.1647L19.5755 13.4808C18.9633 12.3921 18.0882 11.4248 17.3011 10.6812ZM15.371 25.6335C14.8201 25.5528 14.3418 25.4569 13.961 25.3626C13.7909 25.3242 13.6187 25.2798 13.4565 25.2348C13.3931 25.2094 13.3344 25.1964 13.2795 25.1845C9.21654 23.9263 7.58154 20.7328 8.24386 15.4748V15.4639C8.27159 15.1027 8.32812 14.7192 8.41291 14.3065L11.3667 0.612088C11.7752 -1.33288 4.28062 1.93798 3.49459 2.45902C3.1181 2.71088 2.79494 2.8712 2.60137 3.78113L0.471499 13.5558C-0.877133 20.006 0.657609 23.8298 5.2597 25.2094H5.25703C8.35638 26.2699 13.3392 26.0148 15.4414 25.8447C15.7459 25.8198 15.6888 25.6752 15.371 25.6335Z" fill="#EE2E24"/>
</g>
</g>
<defs>
<clipPath id="clip0_2342_161905">
<rect width="117" height="26" fill="white"/>
</clipPath>
</defs>
</svg>
